#!OML:ASF F:\VICON\USERDATA\INSTALL\rory3\rory3.ASF
:FULLY-SPECIFIED
:DEGREES
1312
root -5.001 16.9901 11.3009 -156.62 -27.0359 -174.634
lowerback -5.2443 0.272617 2.61872
upperback 0.203337 -0.0148482 3.22688
thorax 3.156 -0.0388313 1.85558
lowerneck -17.5348 4.88129 1.95958
upperneck 32.9464 5.38633 -1.58271
head 14.3452 1.7825 -0.192794
rclavicle 3.85642e-014 3.45885e-014
rhumerus 11.4148 -81.5489 -38.6275
rradius 11.0068
rwrist 43.7426
rhand -27.753 26.2226
rfingers 7.12502
rthumb -1.14737 -3.75405
lclavicle 3.85642e-014 3.45885e-014
lhumerus -5.83923 11.5062 50.7212
lradius 77.5008
lwrist 20.235
lhand 10.5592 21.6711
lfingers 7.12502
lthumb 35.6565 48.0713
rfemur -23.691 -11.146 35.3705
rtibia 47.2949
rfoot 14.1516 -11.7299
rtoes 2.1386
lfemur -49.0981 7.13431 -32.9535
ltibia 30.5022
lfoot -32.5637 27.0353
ltoes 25.4549
1313
root -4.95117 16.9854 11.3263 -156.404 -26.9987 -174.406
lowerback -4.77633 0.361731 2.274
upperback 0.155195 0.174938 2.95163
thorax 2.83922 0.0589492 1.77512
lowerneck -17.187 4.78436 1.89727
upperneck 32.6375 5.18827 -1.33326
head 14.1127 1.7399 -0.121656
rclavicle -2.16675e-014 -4.31363e-014
rhumerus -66.671 -90.963 36.8873
rradius 10.1164
rwrist 56.5733
rhand -28.0399 24.6482
rfingers 7.12502
rthumb -1.42444 -5.3268
lclavicle -2.16675e-014 -4.31363e-014
lhumerus -6.53564 9.69531 53.4465
lradius 77.5596
lwrist 23.8335
lhand 12.638 21.4221
lfingers 7.12502
lthumb 37.6239 47.3227
rfemur -24.463 -11.3804 35.9532
rtibia 47.6467
rfoot 14.5179 -11.7973
rtoes 1.23767
lfemur -49.6556 6.97846 -32.5763
ltibia 30.4648
lfoot -32.5438 27.2086
ltoes 25.672
1314
root -4.90607 16.9787 11.3575 -156.141 -27.2428 -174.1
lowerback -4.36303 0.432925 2.22057
upperback -0.0147382 0.3179 2.65721
thorax 2.43061 0.135251 1.50624
lowerneck -16.4279 4.6648 2.26217
upperneck 32.111 4.92902 -1.39669
head 13.724 1.68485 -0.267235
rclavicle -2.79292e-014 -1.37161e-014
rhumerus -0.971052 -106.133 -31.2932
rradius 9.7202
rwrist 76.6128
rhand -27.8954 23.7784
rfingers 7.12502
rthumb -1.28493 -6.19751
lclavicle -2.79292e-014 -1.37161e-014
lhumerus -7.36629 7.42242 56.1682
lradius 77.6144
lwrist 27.1487
lhand 13.6023 21.0961
lfingers 7.12502
lthumb 38.5344 46.748
rfemur -25.3241 -11.8559 36.682
rtibia 47.9854
rfoot 14.6313 -11.8502
rtoes 0.97286
lfemur -50.3332 7.21249 -32.4858
ltibia 30.3522
lfoot -31.6639 27.3142
ltoes 24.8543
1315
root -4.8548 16.9734 11.3922 -155.693 -27.5302 -174.047
lowerback -3.88474 0.338805 1.88594
upperback -0.25933 0.256869 2.35083
thorax 1.91045 0.10703 1.36947
lowerneck -16.292 4.73201 2.0842
upperneck 32.3249 4.84192 -0.809708
head 13.7592 1.69214 -0.0232719
rclavicle -1.14115e-014 -1.98288e-014
rhumerus -0.24628 -121.696 -34.5668
rradius 10.1382
rwrist 96.9008
rhand -27.8463 22.2106
rfingers 7.12502
rthumb -1.23744 -7.76551
lclavicle -1.14115e-014 -1.98288e-014
lhumerus -7.86352 5.82504 58.841
lradius 76.396
lwrist 29.9669
lhand 14.9336 20.0948
lfingers 7.12502
lthumb 39.7891 45.3841
rfemur -26.3691 -12.281 37.2287
rtibia 48.35
rfoot 14.5469 -12.2828
rtoes 2.59039
lfemur -51.0015 7.23279 -32.5738
ltibia 30.13
lfoot -30.7811 27.5071
ltoes 24.0759
1316
root -4.81454 16.9609 11.4099 -155.692 -27.2473 -173.987
lowerback -3.23855 0.363285 1.28445
upperback -0.229927 0.355107 2.08043
thorax 1.57483 0.159091 1.42935
lowerneck -16.2574 4.76898 1.62745
upperneck 32.4072 4.80613 -0.18107
head 13.7484 1.70119 0.296782
rclavicle -8.54774e-015 -2.14687e-014
rhumerus -0.245955 -136.262 -37.1176
rradius 11.252
rwrist 115.689
rhand -28.1928 21.9301
rfingers 7.12502
rthumb -1.57214 -8.04387
lclavicle -8.54774e-015 -2.14687e-014
lhumerus -8.33026 4.50329 61.7019
lradius 75.3159
lwrist 32.6365
lhand 17.0127 20.0198
lfingers 7.12502
lthumb 41.7427 44.6955
rfemur -26.6911 -12.3315 37.4186
rtibia 48.6278
rfoot 14.6665 -12.3658
rtoes 2.89742
lfemur -51.0897 7.34593 -32.4978
ltibia 29.8758
lfoot -30.5492 27.8795
ltoes 23.9133
1317
root -4.77026 16.9471 11.4294 -155.57 -27.1507 -173.854
lowerback -2.7367 0.456866 0.834826
upperback -0.286315 0.525227 1.78158
thorax 1.23155 0.247651 1.37722
lowerneck -16.1736 4.6031 1.12695
upperneck 32.411 4.48264 0.473711
head 13.6897 1.58649 0.585815
rclavicle -6.55989e-015 -3.02153e-014
rhumerus 2.1663 -130.589 -42.4571
rradius 12.1662
rwrist 114.09
rhand -27.6444 22.3678
rfingers 7.12502
rthumb -1.04245 -7.60941
lclavicle -6.55989e-015 -3.02153e-014
lhumerus -8.64742 2.78928 64.6132
lradius 74.1913
lwrist 35.3062
lhand 18.6407 20.6842
lfingers 7.12502
lthumb 43.2668 44.8352
rfemur -27.1338 -12.4051 37.8395
rtibia 48.8367
rfoot 15.1114 -11.9715
rtoes 0.362575
lfemur -51.3258 7.14483 -32.2171
ltibia 29.6408
lfoot -30.4144 28.1909
ltoes 24.286
1318
root -4.72694 16.9476 11.4398 -155.514 -27.211 -173.711
lowerback -2.04779 0.59774 0.528732
upperback -0.513064 0.750699 1.40547
thorax 0.610334 0.364896 1.16146
lowerneck -15.9333 4.40238 0.743683
upperneck 32.6287 3.99096 1.22415
head 13.6968 1.40941 0.862084
rclavicle 7.56376e-014 -1.39149e-014
rhumerus 5.84545 -126.505 -48.9614
rradius 12.9767
rwrist 114.502
rhand -27.545 22.7612
rfingers 7.12502
rthumb -0.946448 -7.21643
lclavicle 7.56376e-014 -1.39149e-014
lhumerus -9.18241 0.86301 67.3374
lradius 73.0341
lwrist 37.4033
lhand 20.0499 21.3032
lfingers 7.12502
lthumb 44.5816 44.9657
rfemur -27.4485 -12.5977 38.3173
rtibia 48.926
rfoot 15.4414 -11.9134
rtoes -0.480502
lfemur -51.5381 6.9421 -31.8112
ltibia 29.6145
lfoot -30.719 27.9781
ltoes 25.2636
